<mxfile host="app.diagrams.net" modified="2022-01-21T19:00:07.089Z" agent="5.0 (X11; Linux x86_64) AppleWebKit/537.36 (KHTML, like Gecko) Chrome/97.0.4692.71 Safari/537.36" etag="3WbffExFgHcikfZlbslM" version="16.4.3" type="github">
  <diagram name="Page-1" id="19d8dcba-68ad-dc05-1034-9cf7b2a963f6">
    <mxGraphModel dx="947" dy="2360" grid="1" gridSize="10" guides="1" tooltips="1" connect="1" arrows="1" fold="1" page="1" pageScale="1" pageWidth="1100" pageHeight="850" background="none" math="0" shadow="0">
      <root>
        <mxCell id="0" />
        <mxCell id="1" parent="0" />
        <mxCell id="218ae93e1282097f-42" value="" style="edgeStyle=orthogonalEdgeStyle;rounded=1;html=1;labelBackgroundColor=none;endArrow=block;endFill=1;strokeColor=#4D4D4D;strokeWidth=2;fontFamily=Verdana;fontSize=12;fontStyle=1" parent="1" source="6257edae8c83ed4a-1" target="6257edae8c83ed4a-12" edge="1">
          <mxGeometry relative="1" as="geometry" />
        </mxCell>
        <mxCell id="218ae93e1282097f-43" value="" style="edgeStyle=orthogonalEdgeStyle;rounded=1;html=1;labelBackgroundColor=none;endArrow=block;endFill=1;strokeColor=#4D4D4D;strokeWidth=2;fontFamily=Verdana;fontSize=12;fontStyle=1" parent="1" source="6257edae8c83ed4a-1" target="6257edae8c83ed4a-9" edge="1">
          <mxGeometry relative="1" as="geometry">
            <Array as="points">
              <mxPoint x="1060" y="380" />
            </Array>
          </mxGeometry>
        </mxCell>
        <mxCell id="218ae93e1282097f-44" value="" style="edgeStyle=orthogonalEdgeStyle;rounded=1;html=1;labelBackgroundColor=none;endArrow=block;endFill=1;strokeColor=#4D4D4D;strokeWidth=2;fontFamily=Verdana;fontSize=12;fontStyle=1" parent="1" source="6257edae8c83ed4a-1" target="218ae93e1282097f-2" edge="1">
          <mxGeometry relative="1" as="geometry">
            <Array as="points">
              <mxPoint x="1050" y="25" />
            </Array>
          </mxGeometry>
        </mxCell>
        <mxCell id="218ae93e1282097f-45" value="" style="edgeStyle=elbowEdgeStyle;rounded=1;html=1;labelBackgroundColor=none;endArrow=block;endFill=1;strokeColor=#4D4D4D;strokeWidth=2;fontFamily=Verdana;fontSize=12;fontStyle=1" parent="1" source="6257edae8c83ed4a-9" target="6257edae8c83ed4a-21" edge="1">
          <mxGeometry relative="1" as="geometry" />
        </mxCell>
        <mxCell id="218ae93e1282097f-46" value="" style="edgeStyle=orthogonalEdgeStyle;rounded=1;html=1;labelBackgroundColor=none;endArrow=block;endFill=1;strokeColor=#4D4D4D;strokeWidth=2;fontFamily=Verdana;fontSize=12;fontStyle=1" parent="1" source="6257edae8c83ed4a-9" target="218ae93e1282097f-8" edge="1">
          <mxGeometry relative="1" as="geometry">
            <Array as="points">
              <mxPoint x="1370" y="380" />
            </Array>
          </mxGeometry>
        </mxCell>
        <mxCell id="218ae93e1282097f-47" value="" style="edgeStyle=orthogonalEdgeStyle;rounded=1;html=1;labelBackgroundColor=none;endArrow=block;endFill=1;strokeColor=#4D4D4D;strokeWidth=2;fontFamily=Verdana;fontSize=12;fontStyle=1" parent="1" source="218ae93e1282097f-2" target="218ae93e1282097f-5" edge="1">
          <mxGeometry relative="1" as="geometry">
            <Array as="points">
              <mxPoint x="1250" y="100" />
            </Array>
          </mxGeometry>
        </mxCell>
        <mxCell id="218ae93e1282097f-48" value="" style="edgeStyle=orthogonalEdgeStyle;rounded=1;html=1;labelBackgroundColor=none;endArrow=block;endFill=1;strokeColor=#4D4D4D;strokeWidth=2;fontFamily=Verdana;fontSize=12;fontStyle=1" parent="1" source="218ae93e1282097f-2" target="6257edae8c83ed4a-24" edge="1">
          <mxGeometry relative="1" as="geometry">
            <Array as="points">
              <mxPoint x="1250" y="-45" />
            </Array>
          </mxGeometry>
        </mxCell>
        <mxCell id="B5i0IRKk1Dg6SXqql-j5-28" style="edgeStyle=orthogonalEdgeStyle;rounded=0;orthogonalLoop=1;jettySize=auto;html=1;entryX=0;entryY=0.5;entryDx=0;entryDy=0;fontSize=24;" edge="1" parent="1" source="218ae93e1282097f-8" target="B5i0IRKk1Dg6SXqql-j5-25">
          <mxGeometry relative="1" as="geometry" />
        </mxCell>
        <mxCell id="B5i0IRKk1Dg6SXqql-j5-29" style="edgeStyle=orthogonalEdgeStyle;rounded=0;orthogonalLoop=1;jettySize=auto;html=1;entryX=0;entryY=0.5;entryDx=0;entryDy=0;fontSize=24;" edge="1" parent="1" source="218ae93e1282097f-8" target="B5i0IRKk1Dg6SXqql-j5-26">
          <mxGeometry relative="1" as="geometry" />
        </mxCell>
        <mxCell id="B5i0IRKk1Dg6SXqql-j5-30" style="edgeStyle=orthogonalEdgeStyle;rounded=0;orthogonalLoop=1;jettySize=auto;html=1;entryX=0;entryY=0.5;entryDx=0;entryDy=0;fontSize=24;" edge="1" parent="1" source="218ae93e1282097f-8" target="B5i0IRKk1Dg6SXqql-j5-27">
          <mxGeometry relative="1" as="geometry" />
        </mxCell>
        <mxCell id="218ae93e1282097f-8" value="&lt;span style=&quot;font-size: 21px&quot;&gt;Non-Parameters Methods&lt;/span&gt;" style="whiteSpace=wrap;html=1;rounded=1;shadow=0;comic=0;strokeWidth=2;fontFamily=Verdana;align=center;fontSize=12;fontStyle=1" parent="1" vertex="1">
          <mxGeometry x="1400" y="460" width="204" height="50" as="geometry" />
        </mxCell>
        <mxCell id="6257edae8c83ed4a-9" value="&lt;font style=&quot;font-size: 22px&quot;&gt;Improved&lt;br&gt;Periodogram&lt;/font&gt;" style="whiteSpace=wrap;html=1;rounded=1;shadow=0;comic=0;strokeWidth=2;fontFamily=Verdana;align=center;fontSize=12;fontStyle=1" parent="1" vertex="1">
          <mxGeometry x="1140" y="340" width="204" height="80" as="geometry" />
        </mxCell>
        <mxCell id="B5i0IRKk1Dg6SXqql-j5-12" style="edgeStyle=orthogonalEdgeStyle;rounded=0;orthogonalLoop=1;jettySize=auto;html=1;entryX=0;entryY=0.5;entryDx=0;entryDy=0;fontSize=24;" edge="1" parent="1" source="6257edae8c83ed4a-21" target="B5i0IRKk1Dg6SXqql-j5-7">
          <mxGeometry relative="1" as="geometry" />
        </mxCell>
        <mxCell id="B5i0IRKk1Dg6SXqql-j5-13" style="edgeStyle=orthogonalEdgeStyle;rounded=0;orthogonalLoop=1;jettySize=auto;html=1;entryX=0;entryY=0.5;entryDx=0;entryDy=0;fontSize=24;" edge="1" parent="1" source="6257edae8c83ed4a-21" target="B5i0IRKk1Dg6SXqql-j5-8">
          <mxGeometry relative="1" as="geometry" />
        </mxCell>
        <mxCell id="B5i0IRKk1Dg6SXqql-j5-15" style="edgeStyle=orthogonalEdgeStyle;rounded=0;orthogonalLoop=1;jettySize=auto;html=1;entryX=0;entryY=0.5;entryDx=0;entryDy=0;fontSize=24;" edge="1" parent="1" source="6257edae8c83ed4a-21" target="B5i0IRKk1Dg6SXqql-j5-10">
          <mxGeometry relative="1" as="geometry" />
        </mxCell>
        <mxCell id="B5i0IRKk1Dg6SXqql-j5-16" style="edgeStyle=orthogonalEdgeStyle;rounded=0;orthogonalLoop=1;jettySize=auto;html=1;entryX=0;entryY=0.5;entryDx=0;entryDy=0;fontSize=24;" edge="1" parent="1" source="6257edae8c83ed4a-21" target="B5i0IRKk1Dg6SXqql-j5-11">
          <mxGeometry relative="1" as="geometry" />
        </mxCell>
        <mxCell id="6257edae8c83ed4a-21" value="&lt;font style=&quot;font-size: 21px&quot;&gt;Parameters Methods&lt;/font&gt;" style="whiteSpace=wrap;html=1;rounded=1;shadow=0;comic=0;strokeWidth=2;fontFamily=Verdana;align=center;fontSize=12;fontStyle=1" parent="1" vertex="1">
          <mxGeometry x="1404" y="250" width="200" height="50" as="geometry" />
        </mxCell>
        <mxCell id="6257edae8c83ed4a-12" value="&lt;font style=&quot;font-size: 22px&quot;&gt;Auto-correlation+ FFT&lt;/font&gt;" style="whiteSpace=wrap;html=1;rounded=1;shadow=0;comic=0;strokeWidth=2;fontFamily=Verdana;align=center;fontSize=12;fontStyle=1" parent="1" vertex="1">
          <mxGeometry x="1170" y="135" width="203" height="80" as="geometry" />
        </mxCell>
        <mxCell id="6257edae8c83ed4a-1" value="&lt;font style=&quot;font-size: 24px&quot;&gt;Classical PSD&lt;br&gt;Estimation&lt;br&gt;&lt;/font&gt;" style="whiteSpace=wrap;html=1;rounded=1;shadow=0;comic=0;strokeWidth=2;fontFamily=Verdana;align=center;fontSize=12;fontStyle=1" parent="1" vertex="1">
          <mxGeometry x="887" y="140" width="203" height="70" as="geometry" />
        </mxCell>
        <mxCell id="218ae93e1282097f-2" value="&lt;font style=&quot;font-size: 24px&quot;&gt;&lt;span style=&quot;color: rgb(51 , 51 , 51) ; font-family: &amp;#34;helvetica neue&amp;#34; , &amp;#34;helvetica&amp;#34; , &amp;#34;arial&amp;#34; , &amp;#34;hiragino sans gb&amp;#34; , &amp;#34;hiragino sans gb w3&amp;#34; , &amp;#34;microsoft yahei ui&amp;#34; , &amp;#34;microsoft yahei&amp;#34; , sans-serif ; text-align: left&quot;&gt;Periodogram&lt;/span&gt;&amp;nbsp;&lt;/font&gt;" style="whiteSpace=wrap;html=1;rounded=1;shadow=0;comic=0;strokeWidth=2;fontFamily=Verdana;align=center;fontSize=12;fontStyle=1" parent="1" vertex="1">
          <mxGeometry x="1150" width="200" height="50" as="geometry" />
        </mxCell>
        <mxCell id="6257edae8c83ed4a-24" value="&lt;font style=&quot;font-size: 20px&quot;&gt;FFT&lt;/font&gt;" style="whiteSpace=wrap;html=1;rounded=1;shadow=0;comic=0;strokeWidth=2;fontFamily=Verdana;align=center;fontSize=12;fontStyle=1" parent="1" vertex="1">
          <mxGeometry x="1380" y="-70" width="200" height="50" as="geometry" />
        </mxCell>
        <mxCell id="218ae93e1282097f-5" value="&lt;font style=&quot;font-size: 20px&quot;&gt;Rectangle&lt;/font&gt;" style="whiteSpace=wrap;html=1;rounded=1;shadow=0;comic=0;strokeWidth=2;fontFamily=Verdana;align=center;fontSize=12;fontStyle=1" parent="1" vertex="1">
          <mxGeometry x="1390" y="70" width="200" height="50" as="geometry" />
        </mxCell>
        <mxCell id="B5i0IRKk1Dg6SXqql-j5-19" style="edgeStyle=orthogonalEdgeStyle;rounded=0;orthogonalLoop=1;jettySize=auto;html=1;entryX=0;entryY=0.5;entryDx=0;entryDy=0;fontSize=24;" edge="1" parent="1" source="B5i0IRKk1Dg6SXqql-j5-7" target="B5i0IRKk1Dg6SXqql-j5-17">
          <mxGeometry relative="1" as="geometry" />
        </mxCell>
        <mxCell id="B5i0IRKk1Dg6SXqql-j5-20" style="edgeStyle=orthogonalEdgeStyle;rounded=0;orthogonalLoop=1;jettySize=auto;html=1;entryX=0;entryY=0.5;entryDx=0;entryDy=0;fontSize=24;" edge="1" parent="1" source="B5i0IRKk1Dg6SXqql-j5-7" target="B5i0IRKk1Dg6SXqql-j5-18">
          <mxGeometry relative="1" as="geometry" />
        </mxCell>
        <mxCell id="B5i0IRKk1Dg6SXqql-j5-7" value="&lt;font style=&quot;font-size: 18px&quot;&gt;AR&lt;/font&gt;" style="whiteSpace=wrap;html=1;rounded=1;shadow=0;comic=0;strokeWidth=2;fontFamily=Verdana;align=center;fontSize=12;fontStyle=1" vertex="1" parent="1">
          <mxGeometry x="1660" y="160" width="90" height="40" as="geometry" />
        </mxCell>
        <mxCell id="B5i0IRKk1Dg6SXqql-j5-8" value="&lt;font style=&quot;font-size: 18px&quot;&gt;MA&lt;/font&gt;&lt;span style=&quot;color: rgba(0 , 0 , 0 , 0) ; font-family: monospace ; font-size: 0px ; font-weight: 400&quot;&gt;%3CmxGraphModel%3E%3Croot%3E%3CmxCell%20id%3D%220%22%2F%3E%3CmxCell%20id%3D%221%22%20parent%3D%220%22%2F%3E%3CmxCell%20id%3D%222%22%20value%3D%22%26lt%3Bfont%20style%3D%26quot%3Bfont-size%3A%2018px%26quot%3B%26gt%3BAR%26lt%3B%2Ffont%26gt%3B%22%20style%3D%22whiteSpace%3Dwrap%3Bhtml%3D1%3Brounded%3D1%3Bshadow%3D0%3Bcomic%3D0%3BstrokeWidth%3D2%3BfontFamily%3DVerdana%3Balign%3Dcenter%3BfontSize%3D12%3BfontStyle%3D1%22%20vertex%3D%221%22%20parent%3D%221%22%3E%3CmxGeometry%20x%3D%22690%22%20y%3D%22440%22%20width%3D%2250%22%20height%3D%2240%22%20as%3D%22geometry%22%2F%3E%3C%2FmxCell%3E%3CmxCell%20id%3D%223%22%20value%3D%22%26lt%3Bfont%20style%3D%26quot%3Bfont-size%3A%2018px%26quot%3B%26gt%3BAR%26lt%3B%2Ffont%26gt%3B%22%20style%3D%22whiteSpace%3Dwrap%3Bhtml%3D1%3Brounded%3D1%3Bshadow%3D0%3Bcomic%3D0%3BstrokeWidth%3D2%3BfontFamily%3DVerdana%3Balign%3Dcenter%3BfontSize%3D12%3BfontStyle%3D1%22%20vertex%3D%221%22%20parent%3D%221%22%3E%3CmxGeometry%20x%3D%22599%22%20y%3D%22440%22%20width%3D%2250%22%20height%3D%2240%22%20as%3D%22geometry%22%2F%3E%3C%2FmxCell%3E%3C%2Froot%3E%3C%2FmxGraphModel%3E&lt;/span&gt;" style="whiteSpace=wrap;html=1;rounded=1;shadow=0;comic=0;strokeWidth=2;fontFamily=Verdana;align=center;fontSize=12;fontStyle=1" vertex="1" parent="1">
          <mxGeometry x="1660" y="225" width="90" height="40" as="geometry" />
        </mxCell>
        <mxCell id="B5i0IRKk1Dg6SXqql-j5-10" value="&lt;span style=&quot;font-size: 18px&quot;&gt;ARMA&lt;/span&gt;" style="whiteSpace=wrap;html=1;rounded=1;shadow=0;comic=0;strokeWidth=2;fontFamily=Verdana;align=center;fontSize=12;fontStyle=1" vertex="1" parent="1">
          <mxGeometry x="1660" y="295" width="90" height="40" as="geometry" />
        </mxCell>
        <mxCell id="B5i0IRKk1Dg6SXqql-j5-11" value="&lt;span style=&quot;font-size: 18px&quot;&gt;MUSIC&lt;/span&gt;" style="whiteSpace=wrap;html=1;rounded=1;shadow=0;comic=0;strokeWidth=2;fontFamily=Verdana;align=center;fontSize=12;fontStyle=1" vertex="1" parent="1">
          <mxGeometry x="1660" y="365" width="90" height="40" as="geometry" />
        </mxCell>
        <mxCell id="B5i0IRKk1Dg6SXqql-j5-17" value="&lt;font style=&quot;font-size: 18px&quot;&gt;Yule-Walker&lt;/font&gt;" style="whiteSpace=wrap;html=1;rounded=1;shadow=0;comic=0;strokeWidth=2;fontFamily=Verdana;align=center;fontSize=12;fontStyle=1" vertex="1" parent="1">
          <mxGeometry x="1790" y="110" width="90" height="50" as="geometry" />
        </mxCell>
        <mxCell id="B5i0IRKk1Dg6SXqql-j5-18" value="&lt;span style=&quot;font-size: 18px&quot;&gt;Burg&lt;/span&gt;" style="whiteSpace=wrap;html=1;rounded=1;shadow=0;comic=0;strokeWidth=2;fontFamily=Verdana;align=center;fontSize=12;fontStyle=1" vertex="1" parent="1">
          <mxGeometry x="1790" y="185" width="90" height="40" as="geometry" />
        </mxCell>
        <mxCell id="B5i0IRKk1Dg6SXqql-j5-25" value="&lt;font style=&quot;font-size: 18px&quot;&gt;Bartlett&lt;/font&gt;" style="whiteSpace=wrap;html=1;rounded=1;shadow=0;comic=0;strokeWidth=2;fontFamily=Verdana;align=center;fontSize=12;fontStyle=1" vertex="1" parent="1">
          <mxGeometry x="1660" y="450" width="90" height="40" as="geometry" />
        </mxCell>
        <mxCell id="B5i0IRKk1Dg6SXqql-j5-26" value="&lt;span style=&quot;font-size: 18px&quot;&gt;Welch&lt;/span&gt;" style="whiteSpace=wrap;html=1;rounded=1;shadow=0;comic=0;strokeWidth=2;fontFamily=Verdana;align=center;fontSize=12;fontStyle=1" vertex="1" parent="1">
          <mxGeometry x="1660" y="515" width="90" height="40" as="geometry" />
        </mxCell>
        <mxCell id="B5i0IRKk1Dg6SXqql-j5-27" value="&lt;span style=&quot;font-size: 18px&quot;&gt;Daniell&lt;/span&gt;" style="whiteSpace=wrap;html=1;rounded=1;shadow=0;comic=0;strokeWidth=2;fontFamily=Verdana;align=center;fontSize=12;fontStyle=1" vertex="1" parent="1">
          <mxGeometry x="1660" y="585" width="90" height="40" as="geometry" />
        </mxCell>
      </root>
    </mxGraphModel>
  </diagram>
</mxfile>
